<?xml version="1.0" encoding="utf-8"?>
<!-- Generator: Adobe Illustrator 17.0.0, SVG Export Plug-In . SVG Version: 6.00 Build 0)  -->
<!DOCTYPE svg PUBLIC "-//W3C//DTD SVG 1.1//EN" "http://www.w3.org/Graphics/SVG/1.1/DTD/svg11.dtd">
<svg version="1.1" id="Layer_1" xmlns="http://www.w3.org/2000/svg" xmlns:xlink="http://www.w3.org/1999/xlink" x="0px" y="0px"
	 width="165px" height="24px" viewBox="0 0 165 24" enable-background="new 0 0 165 24" xml:space="preserve">
<path fill="#FFFFFF" d="M19.546,6.103V0H0v24h8.107v-7.68h10.031v-6.103H8.107V6.103H19.546z"/>
<path fill="#FFFFFF" d="M34.13,24h18.962v-6.274H42.237V0H34.13V24z"/>
<path fill="#FFFFFF" d="M85.69,24h8.382L83.56,0h-7.97L65.079,24h8.244l1.615-4.183h9.137L85.69,24z M77.171,13.989l2.336-6.034
	l2.336,6.034H77.171z"/>
<path fill="#FFFFFF" d="M121.782,24h8.656l-5.049-7.406c2.885-1.474,4.534-4.08,4.534-7.543c0-5.554-4.259-9.051-10.958-9.051
	h-11.576v24h8.107v-6.034h2.198L121.782,24z M121.747,9.051c0,1.749-1.064,2.811-3.297,2.811h-2.954V6.24h2.954
	C120.683,6.24,121.747,7.303,121.747,9.051z"/>
<path fill="#FFFFFF" d="M152.977,17.897v-3.154h10.168V8.914h-10.168V6.103h11.576V0h-19.546v24H165v-6.103H152.977z"/>
</svg>
